<?xml version="1.0" encoding="utf-8"?>
<!-- Generator: Adobe Illustrator 27.1.1, SVG Export Plug-In . SVG Version: 6.00 Build 0)  -->
<svg version="1.1"
	 id="svg4193" xmlns:rdf="http://www.w3.org/1999/02/22-rdf-syntax-ns#" xmlns:inkscape="http://www.inkscape.org/namespaces/inkscape" xmlns:svg="http://www.w3.org/2000/svg" xmlns:sodipodi="http://sodipodi.sourceforge.net/DTD/sodipodi-0.dtd" xmlns:dc="http://purl.org/dc/elements/1.1/" xmlns:cc="http://creativecommons.org/ns#" sodipodi:docname="eggs.svg"
	 xmlns="http://www.w3.org/2000/svg" xmlns:xlink="http://www.w3.org/1999/xlink" x="0px" y="0px" viewBox="0 0 268 167.8"
	 style="enable-background:new 0 0 268 167.8;" xml:space="preserve">
<style type="text/css">
	.st0{fill-rule:evenodd;clip-rule:evenodd;fill:#E8CAAF;}
	.st1{fill-rule:evenodd;clip-rule:evenodd;fill:#DDAC80;}
	.st2{fill-rule:evenodd;clip-rule:evenodd;fill:#FFFFFF;}
	.st3{fill-rule:evenodd;clip-rule:evenodd;fill:#D6CE22;}
</style>
<sodipodi:namedview  bordercolor="#666666" borderopacity="1.0" fit-margin-bottom="0" fit-margin-left="0" fit-margin-right="0" fit-margin-top="0" id="base" inkscape:current-layer="layer1" inkscape:cx="-390.5044" inkscape:cy="-24.619205" inkscape:document-units="px" inkscape:pageopacity="0.0" inkscape:pageshadow="2" inkscape:window-height="705" inkscape:window-maximized="1" inkscape:window-width="1366" inkscape:window-x="-8" inkscape:window-y="-8" inkscape:zoom="0.70791968" pagecolor="#ffffff" showgrid="false">
	</sodipodi:namedview>
<g id="layer1" transform="translate(-315.57592,-110.79102)" inkscape:groupmode="layer" inkscape:label="Layer 1">
	<path id="path4777" inkscape:connector-curvature="0" class="st0" d="M451.2,121.2l-2.6,4.2l-3.3,12.7l-1.6,4.2l-13.3-7.7l-2.3,10
		l5.5,11.4l1.4,8.2l-7.4,3.6l2.2,2.3l4.9,4.2l-1.6,2l-8.1,4.2l9.8,10.7l11-1.6l7.7-1.9l-5.8-4l14-3.2h9.8l7.7-24l-15-35.2
		L451.2,121.2z M531.4,162.6l-3.9,7.4l-3.3,7.7l-2.9-0.9l-2.6,3.8l-3.8-1.6l0.7,5.8l5.1-0.7l2.5,6.4l2.2,2.3l6.5-10.4l4.8-5.5
		l5.9,5.5l5.3,10l5.6-4.5l3.3,3.5l6.4-5.5l2-4.6l1.9-2.7v-1.9l-2.7-2.3l-1.6-5.6l-4.3,6.1l-5.2,4l-3-5.6l-3.9,3.5l-5.9-8.1
		L531.4,162.6z"/>
	<path id="path4769" inkscape:connector-curvature="0" class="st1" d="M452.6,121.1l8.3,9.2l3.2,9.2l-3.7,5.1l-4.6,7.4l17.1,10.1
		l1.4,4.2l-8.8,8.3l11.5,12.5l-4.2,5.1l2.3,2.8l6.9,2.3l10.6-10.1l7.8-13.4l1.4-13.8l-5.5-19.8l-10.6-10.1l-18.5-8.3L452.6,121.1z
		 M536.6,176.2l-5.8,9.4l-5.8,7.1l-3.9-8.4l-4.9,0.6l-1.9-3.6l-2.5,4.9l-1.7,11.4l4,14.6l20.2,12.3l19.5-1.6l10.1-10.1l4.2-5.5
		l2.7-6.9l-0.9-12.3l-2.9-10.4l-3.6,7.4l-6.5,6.5l-2.7-4.2l-6.4,4.8l-4.3-8.5L536.6,176.2L536.6,176.2z"/>
	<path id="path4784" inkscape:connector-curvature="0" class="st2" d="M447.5,183.6l6.8-2l17.8-1.7l5.1,6.5l-3.7,6.5l3.4,3.1l17.2,4
		l6.5,5.1l-0.8,4l-6.2,7.3l0.6,4.5l6.5,3.4l31.9,6.8l13,7.1l4,8.2l-3.7,7.1l-6.8,2.8l-17.8,5.4l-25.7,1.4l-24.6-3.1l-29.7-0.6
		l-38.4,6.8l-28,1.7l-21.8-5.7l-2.8-4l4.5-5.4l-0.6-2.5l-18.1-3.7l-9.3-6.8l3.1-7.6l12.7-7.1l18.4-2.8l16.7-0.8l17-2.8l4.5-2.5
		l-6.2-8.5l1.7-6.5l14.4-6.5l24.9-3.1l19.2-3.4L447.5,183.6z"/>
	<path id="path4782" inkscape:connector-curvature="0" class="st3" d="M410.2,231.4l6.4-6.9l7.8-3.8l27.2-6.2l16.1,2.1l10,4l6.1,8.6
		l0.5,7l-6.7,6l-13.8,2.7l-13.5-0.2l-14.1-0.7l-19.3-1.6l-5.8-6.1L410.2,231.4z"/>
	<path id="path4752" inkscape:connector-curvature="0" d="M451.2,120.6l-1.8,2.7c-1,1.5-2.4,5.4-3.1,8.8c-0.7,3.4-1.5,6.7-1.7,7.5
		c-0.3,1.1-1,0.9-4.5-1.4c-4.8-3.1-10.7-5.6-11.6-4.8c-0.3,0.3-0.1,0.8,0.5,1.2c0.8,0.5,0.8,1.4,0.1,4.2c-0.5,1.9-1.1,4.3-1.3,5.2
		c-0.2,0.9,0.8,4,2.5,7.3c4.3,8.4,4.7,10.4,2.7,12.4c-0.9,0.9-2.7,2-4,2.4c-3.2,1.1-2.9,2.5,1.3,5.6c2,1.4,3.5,3,3.3,3.4
		c-0.2,0.5-2.3,1.9-4.8,3.1l-4.5,2.3l1.4,2.4c1.5,2.6,6.2,7.1,7.4,7.1c1.4,0,0.8-1.4-1.5-3.4c-1.3-1.1-2.9-2.9-3.7-4l-1.4-2.1
		l3.9-1.7c2.1-0.9,4.4-2.4,4.9-3.4c0.9-1.5,0.8-1.9-1.2-3.6c-1.3-1-2.9-2.1-3.7-2.3c-2.2-0.8-1.7-1.7,2.1-3.4l3.5-1.6l-0.4-3.8
		c-0.2-2.2-1.8-6.6-3.6-10.2c-3.1-6.1-3.1-6.4-2.2-10c0.5-2,1.1-3.8,1.2-3.9c0.4-0.5,9.9,4.8,9.9,5.5c0,0.4,0.5,0.7,1.1,0.7
		c0.6,0,1.3,0.6,1.6,1.2c0.8,2.1,2.1,0.4,2.1-2.7c0-1.6,0.7-5.7,1.5-9c2.7-11,2.9-11.2,7.1-7.4c5.4,4.9,10.6,14.6,8.5,16.1
		c-1.6,1.1-8.3,10.3-8.3,11.4c0,1.3,3.8,4,10,7.1c5.3,2.7,8.4,4.8,8.4,5.8c0,0.4-1.8,2.9-4,5.4c-2.2,2.5-4,5-4,5.4s1,1.6,2.2,2.4
		l2.2,1.6l-5,0c-2.7,0-5.3,0.2-5.6,0.4s-2.7,0.6-5.3,0.9c-4.5,0.5-7.8,1.8-7.8,3.1c0,0.4,1.3,1.2,3,1.9l3,1.3l-4,1.1
		c-2.2,0.6-6.2,1.3-8.9,1.5c-2.7,0.3-5.9,0.6-7.2,0.8c-1.3,0.2-5.9,0.7-10.3,1.1c-4.4,0.4-10,1.3-12.5,1.9
		c-5.7,1.4-15.7,6.6-16.8,8.8c-1.6,3-0.3,7.8,2.9,10.5c1.6,1.4,2.9,2.7,2.9,3c0,1.9-14.6,4.4-28.8,5.1c-16.1,0.8-29.1,3.3-35.4,7
		c-3.9,2.3-8.6,7.7-8.6,9.9c0,1.9,1.9,4.5,4.8,6.6c2.8,2,3.2,2.1,14.8,4.1c4.8,0.9,9.2,1.9,9.6,2.3c0.5,0.5-0.1,1.6-1.8,3.2
		c-3.2,3-3.3,6.5-0.1,8.8c1.8,1.4,11.2,4,17.2,4.9c7.2,1,27.7-0.1,38.4-2.2c19.6-3.7,41.9-6.2,51.6-5.7c11.2,0.6,28,2,34.4,2.8
		c5,0.7,22.9-0.1,28.8-1.2c6.1-1.2,18.2-5.3,22.2-7.6c3.4-1.9,4.3-3,5.1-5.5c0.5-1.7,0.7-4.1,0.4-5.4c-0.5-2.1-7-9.1-8.5-9.1
		c-0.4,0-1.7-0.9-3-2c-2.3-1.9-13.6-4.8-26.6-6.8c-5.4-0.8-14.4-3.2-15.7-4.2c-0.5-0.4-1.2-1.6-1.4-2.7c-0.4-1.6,0.1-2.7,2.7-5.5
		c4.1-4.5,4.7-6.8,2.6-9.8c-1.7-2.4-6.1-4.9-8.5-4.9c-0.8,0-2.8-0.4-4.4-0.9l-3-0.9l3-3c7.7-7.8,13.7-18,15.4-26.1
		c1.2-5.7,0.4-15.2-1.8-20.9c-3.4-9.1-8.2-14.4-18.9-20.6c-7.5-4.3-11.3-5.3-21.7-5.4L451.2,120.6L451.2,120.6z M455.1,121.7
		l5.2,0.4c7.7,0.6,10.3,1.2,15.5,3.8c4.8,2.4,13,8.2,16.2,11.5c4.9,5,9.6,20.1,8.6,27.5c-0.7,4.8-2.5,10.8-4.9,15.6
		c-2.4,4.8-2.7,5.3-8.4,11c-4.8,4.9-5.9,5.3-10,3.5c-3.1-1.3-3.1-1.8-0.9-5.5c1-1.7,1.5-3.5,1.2-4.4c-0.5-1.6-5.7-6.7-9-8.9
		l-1.8-1.2l3.4-3.6c1.9-2,3.9-4.6,4.5-5.8c1.5-2.9,0.8-3.7-9.3-8.9c-4.3-2.3-8-4.7-8.1-5.4c-0.3-1.7,6.8-10.3,8.5-10.3
		c0.8,0,2.2,0.6,3.3,1.3c1.7,1.2,2,1.2,4.1,0c3.6-2.1,4.5-1.7,4.6,2c0.2,4.1,1,4.7,5.7,4.1c3.5-0.4,3.7-0.3,5.4,2.4
		c1,1.6,1.8,3.2,1.8,3.7s0.4,0.8,0.8,0.8c1,0-1.2-5.4-3-7.4c-1.1-1.2-2-1.3-5.2-0.9l-3.9,0.5l-0.1-2.7c-0.1-1.5-0.2-3.2-0.2-3.9
		c-0.1-1.7-2.1-1.9-5.3-0.5c-2.5,1.1-3,1-5.8-0.5c-1.6-0.9-3-2.3-3-3c0-2.2-3.9-9-7.1-12.2L455.1,121.7z M531.4,161.8
		c-0.9,0-4.9,7.8-6.3,12.2c-1,3.1-2,3.8-2.7,2c-0.3-0.7-1.1-0.2-2.4,1.4c-1.6,1.9-2.2,2.2-3,1.4c-2.4-2.4-3.5-1.1-5.3,6
		c-2,7.8-2.3,15.1-0.8,21.7c0.8,3.6,1.8,5.2,5.4,8.9c5.2,5.3,11.1,8.6,17.4,9.5c5.9,0.9,20.8,0.1,30.5-1.5c6.7-1.1,7.7-1.5,7.9-3
		c0.3-1.9-2.1-2.7-8.5-2.7c-3.6,0-3.7-0.1-2.1-1.4c2.8-2.3,7.5-8.8,8.9-11.9c1.7-4.1,1.7-14.4-0.1-20.6c-0.8-2.6-1.7-5.1-2.1-5.6
		c-0.4-0.4-0.7-1.4-0.7-2.2c0-0.8-0.5-1.4-1.1-1.4s-1.3-1-1.6-2.2c-0.3-1.2-0.9-2.7-1.3-3.4c-0.9-1.3-0.8-1.4-5.9,5.1
		c-2.9,3.6-4.9,3.8-5.5,0.6c-0.6-2.8-2.3-3.1-4.3-0.9c-1.3,1.5-1.4,1.4-3.5-1.8c-1.2-1.8-3-4.1-4.1-5
		C538,165,532.5,161.8,531.4,161.8L531.4,161.8z M531.7,164.2c2.1,0,11,8.1,11,10.1c0,0.6,0.3,1.1,0.7,1.1s1,0.7,1.3,1.6
		c0.7,2.3,1.8,2,3.2-0.8c1.6-3.1,2.5-3,3.1,0.3c0.3,1.8,1.1,2.9,2.1,3.1c0.9,0.2,1.6,0.1,1.6-0.3c0-0.4,0.7-0.9,1.6-1.2
		c0.9-0.3,1.6-1,1.6-1.7s0.4-1.1,0.8-1.1s0.7-0.3,0.6-0.6s0.5-1.6,1.4-2.9l1.5-2.3l0.8,3.5c0.5,1.9,1.3,3.5,1.8,3.6
		c1.9,0.2,1.9,0.3,0.7,1.6c-0.7,0.7-1.3,2.2-1.3,3.3c0,1.3-1.2,3.1-3.2,5.1c-3.5,3.4-5.6,4-5.6,1.5c0-2.1-1.2-2-3.8,0.4
		c-1.2,1.1-2.4,2-2.7,2s-1.3-1.6-2.1-3.5c-1.7-3.8-3.1-5.7-7.3-9.8l-2.7-2.7l-1.2,1.8c-0.7,1-1.7,2.2-2.2,2.8
		c-0.5,0.5-1.4,2.1-2,3.4c-0.6,1.3-1.3,2.4-1.7,2.4s-0.6,0.4-0.6,1s-0.9,2.1-2,3.4l-1.9,2.4l-0.8-2.2c-0.5-1.2-1.1-3.1-1.3-4.1
		c-0.6-2.2-3.1-3.3-4.7-2c-0.9,0.7-1.3,0.6-2-0.7c-0.9-1.6,0.2-3.3,1.1-1.7c1,1.6,2.8,0.8,2.8-1.2c0-2.2,0.7-2.5,2.2-1.1
		c1.6,1.6,3.2,0.1,3.8-3.3c0.3-2,0.9-3.1,1.4-2.7c0.5,0.3,0.6,0.1,0.3-0.4C527.2,171,530.4,164.2,531.7,164.2z M536.7,178.5
		c0.3,0,0.6,0.1,1,0.3c1,0.4,1.8,1.1,1.8,1.4s1.1,1.7,2.4,3.2s3,4.3,3.8,6.5c0.8,2.2,1.8,3.9,2.3,3.9c0.5,0,1.9-1.1,3.1-2.5l2.2-2.5
		l1.8,2.3l1.8,2.3l3.6-3.6c2-2,4.1-5,4.7-6.8c0.6-1.8,1.3-3.5,1.6-3.9c0.8-1,2.3,6.9,2.9,15.2c0.5,7.1,0.4,7.4-2.1,12.1
		c-3.3,6.2-7.1,9.9-13.9,13.4c-5.1,2.7-5.9,2.8-12.8,2.8c-6.9,0-7.7-0.2-13.7-3.2c-11.6-5.7-14.7-9.9-15.4-20.8
		c-0.3-5.3-0.1-8,1-11.7c1.3-4.3,1.5-4.6,2.1-2.9c0.6,1.6,1.1,1.8,3.4,1.5c2.5-0.4,2.7-0.3,3.6,2.6c0.5,1.7,1.6,3.6,2.4,4.4
		c1.5,1.3,1.6,1.3,4.4-2.9c1.6-2.3,2.9-4.5,2.9-4.9c0-0.3,1-2,2.2-3.7C535.1,179.1,535.8,178.4,536.7,178.5L536.7,178.5z
		 M470.3,180.6l3,3.1c2.6,2.7,2.9,3.3,2.1,4.8c-0.5,0.9-1.4,2-2,2.4c-0.6,0.4-1.1,1.2-1.1,1.8c0,1.7,7.1,5.9,10,6
		c2.8,0,8.5,1.5,12,3.2c6.4,3,6.9,6,1.6,10.9c-4.2,3.9-4.6,6.3-1.4,9.2c3.2,3,4.7,3.6,12.1,5c3.7,0.7,6.9,1.4,7.2,1.6
		c0.3,0.2,2,0.6,3.7,0.8s5,1.1,7.2,1.7s5.2,1.4,6.6,1.6c3.1,0.4,13.4,7.1,15.5,10c1.3,1.8,1.4,2.4,0.5,5.2
		c-1.2,3.7-3.8,5.6-12.5,9.3c-5.3,2.2-7.9,2.7-18.6,3.7c-6.8,0.6-14.6,1-17.2,0.8c-10.9-0.8-23.7-2.1-24.4-2.5
		c-1.3-0.8-29.3-0.5-35.2,0.4c-11.9,1.8-21.3,3.4-28.4,4.9c-7.1,1.5-35.1,2.8-40.8,1.8c-5.7-0.9-15-3.8-16.8-5.2
		c-2.6-2.1-2.5-3.6,0.4-6.4c3.6-3.5,3.2-5.4-1.3-5.6c-1.2-0.1-5.3-0.6-9.1-1.3c-9-1.5-13.6-4.4-14.8-9c-0.4-1.6,0.1-2.6,2.1-4.9
		c4.2-4.5,7.4-6.3,14-7.9c7-1.7,10.9-2.1,27.8-3.2c11.9-0.8,22-2.7,26.2-5l2.2-1.2l-2.3-2.8c-2.8-3.4-4.2-8.1-3.2-10.8
		c0.8-2.2,8.5-6.4,14.8-8c2.3-0.6,6.6-1.3,9.7-1.5c14.4-1.2,28.5-3.4,33.1-5.1c1.7-0.6,1.7-0.7-1.1-2.1c-1.6-0.8-2.9-1.7-2.9-2.1
		c0-1,6.7-2.4,14.4-3.1L470.3,180.6z M453.3,214c-0.9,0-1.7,0-2.4,0.1c-11.3,1.6-27,5.5-31.7,7.8c-3.5,1.8-10.1,8.1-10.1,9.7
		c0,2.1,2.5,8.4,3.8,9.6c3,2.7,9.7,3.8,22.8,3.7c7,0,12.9,0.2,13.2,0.5c0.3,0.3,5.6,0.4,11.7,0.2c13.7-0.5,20.4-2.4,23.4-6.9
		c4.2-6.3,0.7-15.4-7.5-19.5C471.3,216.5,459.7,214.1,453.3,214z M452.7,215.8c3.9,0,12.3,1,13.5,1.9c0.9,0.7,5.3,1.9,6.2,1.7
		c0.3-0.1,0.6,0.2,0.6,0.6c0,0.4,1.1,1.1,2.4,1.7s2.6,1.7,2.9,2.5c0.3,0.8,1.2,1.9,2,2.3c0.8,0.4,1.9,2.2,2.5,3.9
		c0.8,2.7,0.7,3.5-0.6,5.8c-1.7,2.9-5.4,5-11.7,6.7c-3.9,1.1-18.2,1.6-19.1,0.7c-0.2-0.2-7-0.5-15.1-0.6
		c-12.5-0.2-15.3-0.5-18.5-1.8c-4.1-1.7-6.2-4.7-6.2-8.8c0-2.1,3.4-6.1,7.4-8.8c4.6-3,14.9-5.7,25-6.5c3.1-0.3,6.2-0.8,7-1.2
		C451.2,215.9,451.8,215.8,452.7,215.8z"/>
</g>
</svg>
