<?xml version="1.0" encoding="utf-8"?>
<!-- Generator: Adobe Illustrator 27.1.1, SVG Export Plug-In . SVG Version: 6.00 Build 0)  -->
<svg version="1.1"
	 id="svg4193" xmlns:rdf="http://www.w3.org/1999/02/22-rdf-syntax-ns#" xmlns:inkscape="http://www.inkscape.org/namespaces/inkscape" xmlns:svg="http://www.w3.org/2000/svg" xmlns:sodipodi="http://sodipodi.sourceforge.net/DTD/sodipodi-0.dtd" xmlns:dc="http://purl.org/dc/elements/1.1/" xmlns:cc="http://creativecommons.org/ns#" sodipodi:docname="eggs.svg"
	 xmlns="http://www.w3.org/2000/svg" xmlns:xlink="http://www.w3.org/1999/xlink" x="0px" y="0px" viewBox="0 0 268 167.8"
	 style="enable-background:new 0 0 268 167.8;" xml:space="preserve">
<style type="text/css">
	.st0{fill:#DDAC80;}
</style>
<sodipodi:namedview  bordercolor="#666666" borderopacity="1.0" fit-margin-bottom="0" fit-margin-left="0" fit-margin-right="0" fit-margin-top="0" id="base" inkscape:current-layer="layer1" inkscape:cx="-390.5044" inkscape:cy="-24.619205" inkscape:document-units="px" inkscape:pageopacity="0.0" inkscape:pageshadow="2" inkscape:window-height="705" inkscape:window-maximized="1" inkscape:window-width="1366" inkscape:window-x="-8" inkscape:window-y="-8" inkscape:zoom="0.70791968" pagecolor="#ffffff" showgrid="false">
	</sodipodi:namedview>
<g id="layer1" transform="translate(-315.57592,-110.79102)" inkscape:groupmode="layer" inkscape:label="Layer 1">
	<path class="st0" d="M463.1,151.1l-11.9-8.6l-13.5-2.2c-0.4,0.2-0.8,0.3-1.2,0.4c-0.4,0-0.9,0-1.3,0.1c0,0,0,0,0,0
		c-0.2,0-0.3,0.1-0.5,0.1l-4.1,2.3c-0.3,0.5-0.6,1-1.2,1.4c-3.5,2.5-5.8,6.7-9.5,8.8l-7.5,10.9c-0.1,0.4-0.4,0.7-0.6,1
		c0,0.1-0.1,0.2-0.1,0.2c-0.1,0.3-0.2,0.6-0.3,0.8c-0.4,0.8-0.6,1.6-1,2.3l-6.4,20.5c-0.2,1.2-0.3,2.5-0.4,3.7
		c-0.1,0.9-0.3,1.7-0.6,2.4c0,0.4,0,0.8,0,1.2c0,2.5,0.1,5.7-0.8,8.1l1.4,20.4l9.7,21l22.1,13.9l11.3,0.1l21-7.6l9.8-13.5l3.9-13.2
		l3.2-25.1l-5.3-19.5L463.1,151.1z"/>
	<path d="M467.9,220.5c0.8,1.2,2.6,3.5,3.8,5.2c1.5,2,2.1,3.5,1.8,4.2c-0.3,0.8,0.1,0.9,1.2,0.4c1.4-0.7,1.4-0.9,0-2.2
		c-0.9-0.8-2.8-3.5-4.3-5.9c-1.5-2.4-3-4.3-3.4-4.1C466.6,218.2,467,219.3,467.9,220.5z"/>
	<path d="M472.3,190.8c1.4,2.2,2.5,3.5,2.6,2.9c0.1-1.2-3.9-6.9-6.2-8.9c-0.7-0.6-1-0.8-1-0.8c0,0,0.3,0.4,0.9,1.2
		C469.3,186.1,471,188.6,472.3,190.8z"/>
	<path d="M473.7,199.2c1.3,2.3,2.8,4.5,3.3,5s0.9,0.6,1,0.3c0.2-0.7-6-9.9-8.2-12.3c-0.9-0.9-1.3-1.3-1.3-1.3c0,0.1,0.4,0.6,1.2,1.8
		C470.5,194,472.3,196.9,473.7,199.2z"/>
	<path d="M471,214.5c0.2-0.4,0.6-0.2,0.8,0.4c0.2,0.6,0.7,1.6,1,2.3c0.4,0.7,1,1.1,1.3,0.9c0.6-0.3-1.4-3.2-5.6-8.4
		c-0.9-1.1-1.4-1.7-1.5-1.7l0,0c-0.1,0,0.4,1,1.5,3.2C469.7,213.4,470.8,214.9,471,214.5z"/>
	<path d="M471.2,205.1c1,1.6,2.1,2.7,2.4,2.6c0.7-0.3-4.1-6.9-5.7-7.9c-0.3-0.2-0.5-0.3-0.6-0.3c-0.1,0,0.1,0.4,0.7,1.1
		C468.7,201.5,470.2,203.5,471.2,205.1z"/>
	<path d="M476.6,213c1.1,1.6,2.3,2.8,2.6,2.7c0.3-0.1-0.7-1.9-2.2-4c-1.4-1.9-2.2-2.7-2.5-2.7C474.3,209,474.9,210.4,476.6,213z"/>
	<path d="M476.6,188.6c-0.1-0.5-1.3-2.1-2.7-3.5c-1.4-1.4-3.5-4-4.7-5.7c-1.2-1.8-2.4-3.1-2.7-2.9c-0.6,0.3,1.5,3.2,7,9.4
		C475.3,187.9,476.7,189.1,476.6,188.6z"/>
	<path d="M468,171.1c-1-1.4-2-2.3-2.4-2.2c-0.5,0.2,1.8,3.6,4.5,6.5c1.1,1.2,1.7,0.5,0.6-0.7C470.2,174.1,468.9,172.5,468,171.1z"/>
	<path d="M448.2,240.1c0.1-0.3-0.4-1.1-1.1-1.8c-0.6-0.6-1.2-1-1.4-0.9l0,0c0,0-0.1,0-0.1,0.1c-0.1,0.3,0.4,1.1,1.1,1.8
		C447.5,240.1,448.1,240.4,448.2,240.1z"/>
	<path d="M440.9,245c-0.8-1-3.6-2.5-4.1-2.2l0,0c0,0-0.1,0-0.1,0.1c-0.2,0.6,3.7,4.1,4.2,3.8c0.3-0.1,0.9,0.6,1.2,1.6
		c0.4,1,0.9,1.8,1.2,1.6c0.3-0.2,1.4,0.5,2.5,1.4s2.2,1.6,2.5,1.5c0.3-0.1-1.1-1.8-3.1-3.6C443.3,247.4,441.3,245.5,440.9,245z"/>
	<path d="M453.7,250.5c-1.1,0.1-3.7-1.9-5.3-3.9c-1.7-2.2-6.1-6-6.7-5.7c-1,0.5-0.7,0.7,4.3,5.1c2.5,2.2,4.8,4.5,5.1,5
		c0.3,0.6,1.2,0.6,2.1,0.2C454.1,250.8,454.3,250.5,453.7,250.5z"/>
	<path d="M468,153.9c-3.8-5.3-12.3-11.6-18-13.6c-3.6-1.2-7.9-1.5-11.7-0.8c-0.5,0.3-1.1,0.5-1.7,0.6c-0.4,0-0.9,0-1.3,0.1
		c0,0,0,0,0,0c-0.2,0-0.3,0.1-0.5,0.2c-0.6,0.2-1.2,0.4-1.7,0.7c-0.7,0.3-1.4,0.8-2.2,1.3c-0.3,0.6-0.7,1.2-1.3,1.6
		c-3.5,2.5-5.8,6.6-9.5,8.8c-1.5,1.8-2.9,3.6-4.2,5.5c-4.3,6.2-6.9,12.6-10.2,25c-0.7,2.6-1.4,5-1.6,5.6c-0.2,1.2-0.3,2.4-0.4,3.6
		c-0.1,0.9-0.3,1.7-0.6,2.4c0,0.4,0,0.8,0,1.2c0,2.5,0.1,5.6-0.8,8c-0.3,5-0.4,10-0.2,12.5c1.1,11.7,6.5,25,12.8,31.7
		c3.3,3.5,12.2,9.4,17,11.2c3.4,1.3,11.6,2,17.2,1.5c10.1-1,20.2-7.3,26.7-16.7c3.5-5.1,7.7-17.3,8.7-25.7c0.5-3.7,0.8-7,0.7-7.2
		c-0.1-0.2,0-2.5,0.2-5.2c0.2-2.6,0-6.3-0.4-8.1c-0.5-1.8-1.2-5.4-1.7-8C481.5,180.2,473.7,161.7,468,153.9z M479.5,186.7
		c3.2,11.4,3.4,13.1,3.3,24.4c-0.1,9.2-0.5,11.5-3.6,20.7c-2.5,7.6-4.3,11.3-6.6,14c-7.2,8.6-17.2,12.6-29,11.8
		c-0.8-0.1-2-0.1-2.7-0.1c-1.3,0-1.7-0.1-7.4-1.4c-3.8-0.9-12.6-6.6-16.9-11c-2.4-2.5-4.3-5.4-7.3-11.6c-3.5-7.2-4.1-9.2-4.7-14.9
		c-1.4-12.2-0.9-20.5,2-33.5c1.3-6,5.2-17.5,6.9-20c3.8-5.9,7.5-10.6,12.1-15.1l5.4-5.3l6.6-1.9c6.3-1.8,6.8-1.8,11.3-0.1
		c5.9,2.3,12.9,7.8,16.4,12.7C469.6,161.5,477.1,178,479.5,186.7z"/>
	<path d="M449.4,240.8c-0.7,0.3,1.7,3.6,5.2,7c2.5,2.4,5.1,3,3,0.7C453.7,244.1,449.9,240.5,449.4,240.8z"/>
	<path d="M441.4,251.5c-0.9-0.2-2.9-1.5-4.4-2.9c-1.3-1.2-2.4-1.9-2.6-1.7c0,0,0,0.1,0,0.1c0.1,0.5,1.5,2.1,3.2,3.5
		c2,1.7,3.5,2.4,4.3,1.9C443,251.8,442.9,251.8,441.4,251.5z"/>
	<path d="M466,236.9c0.6,0.8,1.4,1.7,1.9,2s1.2,0.4,1.6,0.2c0.5-0.3,0.4-0.5-0.4-0.9c-0.7-0.3-2.2-2.1-3.3-3.9
		c-1.2-1.8-2.6-3.5-3.3-3.7c-0.2-0.1-0.3-0.1-0.4-0.1C461.7,230.6,462.6,231.9,466,236.9z"/>
	<path d="M470.7,233.8c0.9,1.2,1.9,2,2.3,1.8c0.4-0.2,0.3-0.8-0.4-1.4c-0.6-0.6-2-2.5-3.1-4.3c-1.1-1.8-2.9-4.1-4.1-5.1l-2.2-1.8
		l1.8,2.7C467.4,229.1,468.8,231.1,470.7,233.8z"/>
	<path d="M461.2,229.7c0.4-0.2,0.2-1.1-0.7-2.1c-1-1.2-1.6-1.9-1.8-1.8c-0.2,0,0,0.7,0.7,2C460,229,460.8,229.9,461.2,229.7z"/>
	<path d="M462.5,247.4c0.2-0.6-5.7-7.1-9-9.9c-1.4-1.1-2.1-1.6-2.3-1.6c-0.4,0.1,1.8,2.7,5.9,6.7
		C459.9,245.5,462.4,247.7,462.5,247.4z"/>
	<path d="M461.4,240.3c0.4,0.6,1.3,1.8,2.2,2.7c0.8,0.9,1.9,1.5,2.2,1.4c0.4-0.2,0.2-0.8-0.4-1.4c-1.1-1-3.3-4-4.4-5.9
		c-0.3-0.5-0.7-0.8-1-0.6c-0.3,0.1-0.7-0.2-1-0.6c-0.3-0.5-1.5-1.8-2.8-2.9c-1-0.8-1.5-1.1-1.7-1.1c-0.4,0.1,0.9,2,3.4,4.5
		C459.5,238,461.1,239.7,461.4,240.3z"/>
</g>
</svg>
